<svg width="64px" height="64px" viewBox="0 0 48 48" xmlns="http://www.w3.org/2000/svg" fill="#888585"><g id="SVGRepo_bgCarrier" stroke-width="0"></g><g id="SVGRepo_tracerCarrier" stroke-linecap="round" stroke-linejoin="round"></g><g id="SVGRepo_iconCarrier"> <title>computer-code</title> <g id="Layer_2" data-name="Layer 2"> <g id="invisible_box" data-name="invisible box"> <rect width="48" height="48" fill="none"></rect> <rect width="48" height="48" fill="none"></rect> <rect width="48" height="48" fill="none"></rect> </g> <g id="icons_Q2" data-name="icons Q2"> <g> <path d="M7,34H41a2,2,0,0,0,2-2V8a2,2,0,0,0-2-2H7A2,2,0,0,0,5,8V32A2,2,0,0,0,7,34ZM39,10V30H9V10"></path> <path d="M44,38H4a2,2,0,0,0,0,4H44a2,2,0,0,0,0-4Z"></path> <path d="M29.5,12.6a2.1,2.1,0,0,0-2.7-.2,1.9,1.9,0,0,0-.2,3L31.2,20l-4.6,4.6a1.9,1.9,0,0,0,.2,3,2.1,2.1,0,0,0,2.7-.2l5.9-6a1.9,1.9,0,0,0,0-2.8Z"></path> <path d="M21.2,12.4a2.1,2.1,0,0,0-2.7.2l-5.9,6a1.9,1.9,0,0,0,0,2.8l5.9,6a2.1,2.1,0,0,0,2.7.2,1.9,1.9,0,0,0,.2-3L16.8,20l4.6-4.6A1.9,1.9,0,0,0,21.2,12.4Z"></path> </g> </g> </g> </g></svg>