<svg width="105" height="105" viewBox="0 0 105 105" fill="none" xmlns="http://www.w3.org/2000/svg">
  <circle cx="52.5" cy="52.5" r="52.5" fill="#2C2E43" />
  <path
    d="M54.0625 55.5156H36.5312L36.4375 45.2969H50.9219C53.4844 45.2969 55.5625 44.9844 57.1562 44.3594C58.7812 43.7344 59.9688 42.8281 60.7188 41.6406C61.4688 40.4219 61.8438 38.9219 61.8438 37.1406C61.8438 35.1094 61.4688 33.4688 60.7188 32.2188C59.9688 30.9687 58.7812 30.0625 57.1562 29.5C55.5625 28.9062 53.5 28.6094 50.9688 28.6094H42.0625V85H26.7812V16.75H50.9688C55.0625 16.75 58.7188 17.125 61.9375 17.875C65.1562 18.625 67.8906 19.7813 70.1406 21.3438C72.4219 22.9062 74.1562 24.8594 75.3438 27.2031C76.5312 29.5469 77.125 32.3125 77.125 35.5C77.125 38.2812 76.5 40.875 75.25 43.2812C74.0312 45.6875 72.0625 47.6406 69.3438 49.1406C66.625 50.6406 62.9844 51.4531 58.4219 51.5781L54.0625 55.5156ZM53.4531 85H32.6406L38.1719 73.1875H53.4531C55.7969 73.1875 57.7031 72.8125 59.1719 72.0625C60.6406 71.3125 61.7188 70.2969 62.4062 69.0156C63.0938 67.7344 63.4375 66.2969 63.4375 64.7031C63.4375 62.8281 63.1094 61.2031 62.4531 59.8281C61.8281 58.4531 60.8281 57.3906 59.4531 56.6406C58.1094 55.8906 56.3125 55.5156 54.0625 55.5156H40.375L40.4688 45.2969H57.2031L60.7656 49.3281C65.1094 49.2344 68.5781 49.9375 71.1719 51.4375C73.7969 52.9062 75.6875 54.8438 76.8438 57.25C78 59.6562 78.5781 62.2031 78.5781 64.8906C78.5781 69.3281 77.625 73.0469 75.7188 76.0469C73.8125 79.0156 70.9844 81.25 67.2344 82.75C63.5156 84.25 58.9219 85 53.4531 85Z"
    fill="white" />
</svg>