<svg width="16" height="16" viewBox="0 0 16 16" fill="none" xmlns="http://www.w3.org/2000/svg">
<path d="M13.5 7V4" stroke="black" stroke-linecap="round" stroke-linejoin="round"/>
<path d="M15 5.5H12" stroke="black" stroke-linecap="round" stroke-linejoin="round"/>
<path d="M10.5 1.5V3.5" stroke="black" stroke-linecap="round" stroke-linejoin="round"/>
<path d="M11.5 2.5H9.5" stroke="black" stroke-linecap="round" stroke-linejoin="round"/>
<path d="M13.5437 9.53749C12.562 9.81277 11.5248 9.82179 10.5385 9.56363C9.55217 9.30546 8.65235 8.78943 7.93143 8.06851C7.21052 7.34759 6.69448 6.44777 6.43632 5.46146C6.17816 4.47516 6.18718 3.43791 6.46245 2.45624C5.49462 2.72562 4.61425 3.24388 3.90904 3.95938C3.20383 4.67489 2.6984 5.56268 2.44307 6.53432C2.18775 7.50595 2.19145 8.52753 2.45381 9.49729C2.71617 10.4671 3.22803 11.3512 3.93841 12.0615C4.64879 12.7719 5.53289 13.2838 6.50265 13.5461C7.47241 13.8085 8.49399 13.8122 9.46563 13.5569C10.4373 13.3015 11.3251 12.7961 12.0406 12.0909C12.7561 11.3857 13.2743 10.5053 13.5437 9.53749Z" stroke="black" stroke-linecap="round" stroke-linejoin="round"/>
</svg>
